<svg xmlns="http://www.w3.org/2000/svg" viewBox="0 0 424 424" width="424" height="424">
	<style>
		tspan { white-space:pre }
		.shp0 { fill: #000000 } 
	</style>
	<g id="Layer">
		<path id="Layer" fill-rule="evenodd" class="shp0" d="M423.11 238.3C423.11 254.95 414.1 269.34 399.34 275.9C398.2 276.31 398.31 277.08 398.29 277.43C396.96 303 375.74 323.4 349.85 323.4C338.02 323.4 327.82 319.95 319.11 312.41C318.28 311.77 317.76 312.3 317.64 312.54C311.06 325.69 304.61 336.82 298.19 346.19C286.11 363.8 275.66 372.36 266.26 372.36L266.26 372.36C261.99 372.36 254.19 370.56 249.92 358.58C246.37 348.62 243.27 337.51 239.97 325.44C239.92 325.29 239.61 324.9 239.05 325.27C230.8 331.91 221.34 334.96 210.6 334.96L210.6 334.96C204.78 334.96 199.07 333.89 193.74 331.82C193.45 331.71 192.27 331.52 191.45 332.18C181.21 342.18 169.15 346.97 154.82 346.97C153.75 346.97 153.44 346.97 152.39 346.91C151.51 346.84 151.51 347.29 151.44 347.49C150.13 351.65 148.9 355.3 147.7 358.62C143.34 370.67 135.47 372.46 131.16 372.46C121.72 372.46 111.26 364.03 99.21 346.68C91.15 335.1 82.73 320.04 74.6 302.75C74.52 302.58 74.37 302.31 73.45 302.31C72.07 302.42 71.59 302.42 70.18 302.42C56.99 302.42 44.59 297.29 35.27 287.96C25.49 278.19 20.37 264.95 20.83 251.39C20.84 251.22 20.92 250.79 20.28 250.29C17.45 248.52 15.4 247 13 244.6C-4.33 227.26 -4.33 199.06 13 181.73C18.61 176.12 25.46 172.21 32.93 170.22C33.51 170.07 34.68 168.81 34.68 166.43C33.97 159.49 33.6 156.3 33.6 150.25C33.6 124.32 42.78 99.76 59.45 81.1C76.99 61.46 101.13 50.64 127.43 50.64C148.18 50.64 170.19 62.82 186.26 71.72C191.57 74.65 199.49 79.46 201.82 79.46C204.16 79.45 212.11 74.64 217.43 71.71C233.56 62.81 255.61 50.64 276.21 50.64C302.51 50.64 326.65 61.46 344.19 81.1C360.86 99.76 370.05 124.32 370.05 150.25C370.05 164.24 367.97 181.08 364.01 199.55C363.93 199.91 364.2 200.62 365.24 199.98C370.73 197.4 375.29 196.68 381.48 196.68C404.43 196.68 423.11 215.35 423.11 238.3ZM89.36 214.53C89.84 214 90.34 213.49 90.84 212.97C90.92 212.89 90.99 212.81 91.08 212.72C91.76 212.04 92.47 211.38 93.19 210.74C93.35 210.6 93.52 210.46 93.69 210.31C94.3 209.78 94.93 209.26 95.57 208.76C95.68 208.67 95.79 208.58 95.91 208.5C100.62 204.87 105.9 202.16 111.53 200.47C111.76 200.4 112.27 200.19 111.84 199.25C110.94 196.61 109.84 195.21 107.83 193.2C104.35 189.72 99.73 187.81 94.82 187.81C78.95 187.81 75.37 207.67 71.97 207.9C68.56 208.14 63.7 188.71 44.44 188.71C37.9 188.71 31.76 191.25 27.14 195.87C17.61 205.41 17.61 220.92 27.14 230.46C34.16 237.48 42.09 237.13 43.08 238.97C44.07 240.8 34.87 259.27 49.41 273.82C54.96 279.37 62.34 282.42 70.19 282.42C76.24 282.42 86.89 283.15 86.89 277.22C86.89 274.23 76.73 257.86 76.73 247.34C76.73 235.99 80.58 225.22 87.65 216.53C87.67 216.5 87.7 216.46 87.73 216.43C88.16 215.9 88.61 215.38 89.06 214.87C89.16 214.76 89.26 214.64 89.36 214.53ZM301.48 309.36C301.59 309.15 301.7 308.62 300.68 308.64C277.83 307.26 260.78 288.32 260.78 265.12C260.78 243.62 276.4 225.7 296.88 222.09C298.6 202.85 314.81 187.71 334.49 187.71C339.81 187.71 343.78 188.35 348.44 190.37C349.64 191.19 349.75 189.99 349.84 189.56C352.71 174.75 354.22 161.33 354.22 150.25C354.22 109.07 325.04 66.47 276.2 66.47C259.68 66.47 239.69 77.5 225.09 85.55C222.44 87.02 220.36 88.26 218.52 89.36C216.43 90.61 213.67 92.23 213.76 92.87C214.03 94.62 222.36 99.01 229.91 101.01C248.92 106.05 277.82 105.44 277.82 107.99C277.82 109.97 260.8 113.35 246.86 113.35C233.19 113.35 219.91 110.66 207.38 105.34C204.08 103.94 200.99 102.11 198.52 100.65C192.72 97.24 187.79 93.67 184.15 90.94C183.02 90.09 181.81 89.16 180.58 88.21C177.5 85.85 174.32 83.4 172.09 81.98C156.8 72.27 140.1 66.47 127.43 66.47C78.6 66.47 49.42 109.07 49.42 150.25C49.42 156.02 49.8 159.14 50.54 165.92C50.54 168.81 51.82 169.32 52.45 169.43C58.81 170.58 64.17 172.47 69.45 176.21C70.19 176.95 70.68 176.33 70.99 176.09C77.75 170.72 86.06 167.81 94.82 167.81C105.07 167.81 114.71 171.8 121.96 179.05C127.24 184.33 130.8 190.95 132.33 198.09C132.39 198.35 132.7 199.06 133.87 199.06C141.96 200.18 148.21 203.07 154.77 207.93C162.47 201.1 172.28 197.36 182.67 197.36C193.92 197.36 204.49 201.74 212.44 209.7C221.07 218.32 225.36 229.96 224.74 241.65C224.74 243.02 225.27 244.48 227.04 244.8C233.49 245.98 238.8 250.72 243.53 255.45C252.33 264.25 257.18 275.95 257.18 288.39C257.18 295.68 255.5 302.71 252.35 309.06C252.26 309.26 252.06 309.62 252.28 310.48C252.99 313.04 253.46 314.78 254.16 317.33C257.74 330.47 261.13 342.88 264.83 353.27C265.49 355.13 266.05 356.36 266.51 356.51C268.37 357.13 274.79 352.33 285.14 337.24C290.36 329.63 295.92 320.14 301.48 309.36ZM237.18 288.39C237.18 281.29 234.42 274.61 229.4 269.59C217.53 257.73 199.48 264.2 197.57 261.18C195.66 258.16 215.49 241.02 198.31 223.83C194.13 219.66 188.58 217.36 182.68 217.36C165.12 217.36 160.08 238.97 156.68 239.2C153.27 239.43 146.29 218.38 125.7 218.38C125.27 218.38 124.84 218.39 124.41 218.41L123.76 218.45C118.09 218.83 112.69 220.86 108.21 224.26C108.15 224.3 108.09 224.35 108.03 224.4C107.75 224.61 107.47 224.83 107.2 225.06C107.06 225.17 106.93 225.29 106.8 225.41C106.6 225.58 106.4 225.75 106.2 225.93C105.91 226.19 105.63 226.47 105.34 226.75C105.3 226.79 105.26 226.82 105.22 226.86C105.13 226.95 105.05 227.04 104.97 227.13C104.71 227.39 104.45 227.66 104.21 227.93C104.13 228.02 104.06 228.11 103.98 228.19C103.73 228.48 103.48 228.76 103.24 229.05C103.21 229.09 103.19 229.12 103.16 229.15C94.61 239.73 91.37 255.23 102.45 266.31C110.06 273.92 121.59 275.55 122.66 277.33C124.45 280.31 112.65 299.11 130.4 316.86C136.92 323.38 145.59 326.97 154.82 326.97C164.04 326.97 172.71 323.38 179.23 316.86C186.7 309.39 185.85 305.88 188.17 305.47C190.49 305.06 196.45 314.97 210.61 314.97C217.7 314.97 224.38 312.2 229.4 307.18C234.41 302.16 237.18 295.49 237.18 288.39ZM135.73 344.68C135.89 344.22 135.86 343.56 134.87 343.22C127.51 340.53 121.96 336.7 116.26 331C105.84 320.59 100.21 307.52 100.29 293.09C100.25 292.57 99.86 292.5 99.77 292.57C96.68 294.92 93.97 296.31 90.43 297.86C89.91 298.11 90.16 298.59 90.23 298.75C97.57 314.03 105.22 327.6 112.2 337.65C124 354.63 130.01 356.89 131.01 356.62C131.5 356.48 132.15 355.09 132.82 353.23C133.81 350.49 134.52 348.26 135.73 344.68ZM403.11 238.3C403.11 226.38 393.41 216.68 381.48 216.68C365.45 216.68 359.84 232.72 356.36 231.94C352.88 231.16 356.79 207.71 334.49 207.71C324.7 207.71 316.73 215.68 316.73 225.47C316.73 236.48 322.4 240.15 320.15 242.72C317.91 245.29 314.45 241.43 304.47 241.43C291.41 241.43 280.78 252.06 280.78 265.12C280.78 278.18 291.41 288.81 304.47 288.81C307.7 288.81 310.97 288.45 313.78 286.91C315.61 285.9 319.46 283.02 321.46 283.63C323.45 284.22 325.08 288.74 326.06 290.59C330.56 299.09 340.26 303.4 349.85 303.4C365.57 303.4 378.35 290.61 378.35 274.89C378.35 273.52 378.39 272.08 378.05 270.72C377.47 268.43 375.33 263.33 376.69 261.4C378.04 259.47 382.34 260.94 384.68 260.71C394.81 259.68 403.11 248.51 403.11 238.3Z" />
	</g>
	<g id="Layer">
	</g>
	<g id="Layer">
	</g>
	<g id="Layer">
	</g>
	<g id="Layer">
	</g>
	<g id="Layer">
	</g>
	<g id="Layer">
	</g>
	<g id="Layer">
	</g>
	<g id="Layer">
	</g>
	<g id="Layer">
	</g>
	<g id="Layer">
	</g>
	<g id="Layer">
	</g>
	<g id="Layer">
	</g>
	<g id="Layer">
	</g>
	<g id="Layer">
	</g>
	<g id="Layer">
	</g>
</svg>