<svg xmlns="http://www.w3.org/2000/svg" viewBox="0 0 401 401" width="401" height="401">
	<style>
		tspan { white-space:pre }
		.shp0 { fill: #000000 } 
	</style>
	<g id="Layer">
		<path id="Layer" fill-rule="evenodd" class="shp0" d="M371.17 101.3C371.17 118.15 367.58 139.04 362.56 162.13C358.59 180.4 342.79 200.47 312.6 213.76C303.48 217.77 287.68 221.17 283.76 224.07C279.61 227.13 277.43 236.82 276.26 241.52C276.08 242.26 275.86 243.76 277 243.76C284.12 243.76 289.91 249.55 289.91 256.67C289.91 263.8 284.12 269.59 277 269.59L268.11 269.59C268.11 269.59 267.11 269.5 266.8 270.44C265.37 274.73 261.99 285.88 261.99 285.88C261.99 285.88 261.12 287.65 262.68 287.65C263.26 287.65 263.79 287.6 265.3 287.6C272.42 287.6 277.6 293.39 277.6 300.51C277.6 307.63 271.81 313.43 264.68 313.43C264.68 313.43 256.19 313.43 253.37 313.43C251.99 313.43 251.74 314.88 251.74 314.88L246.99 329.19C246.99 329.19 246.18 331.44 247.49 331.44C248.34 331.44 250.29 331.44 252.27 331.44C261.68 331.44 265.18 337.23 265.18 344.35C265.18 351.47 259.39 357.27 252.27 357.27L238.3 357.27C238.3 357.27 237.49 357.13 237.05 358.32C234.84 364.31 228.86 382.54 228.86 382.54C224.07 394.24 214.44 400.14 200.21 400.14L199.42 400.14C185.19 400.14 175.56 394.24 170.8 382.62L170.76 382.5L162.78 358.64C162.78 358.64 162.51 357.27 160.76 357.27C157.54 357.27 147.87 357.27 147.87 357.27C140.75 357.27 134.96 351.47 134.96 344.35C134.96 337.23 140.75 331.44 147.87 331.44C147.87 331.44 151.38 331.44 152.55 331.44C153.68 331.44 153.38 330.5 153.38 330.5L148.18 314.94C148.18 314.94 147.55 313.43 145.68 313.43C143.12 313.43 135.45 313.43 135.45 313.43C128.33 313.43 122.54 307.63 122.54 300.51C122.54 293.39 128.33 287.6 135.45 287.6C138.43 287.6 138.05 285.06 138.05 285.06L133.58 271.26C133.58 271.26 133.05 269.59 131.43 269.59C129.35 269.59 123.14 269.59 123.14 269.59C116.02 269.59 110.22 263.79 110.22 256.67C110.22 249.55 116.02 243.76 123.14 243.76C124.43 243.76 123.55 240.69 123.55 240.69C123.55 240.69 119.7 227.67 116.09 224.06C113.09 221.06 96.37 217.86 87.05 213.76C56.19 200.18 41.59 182.23 36.99 160.91C32.09 138.25 28.97 118.29 28.97 101.3C28.97 74.93 38.31 49.95 55.26 30.97C73.1 11 97.65 0 124.4 0C145.49 0 167.88 12.39 184.23 21.43C189.63 24.42 197.69 29.31 200.07 29.31C202.45 29.31 210.55 24.41 215.98 21.41C232.36 12.38 254.79 0 275.74 0C302.48 0 327.04 11 344.88 30.97C361.83 49.95 371.17 74.93 371.17 101.3ZM220.12 357.66C220.12 357.66 220.27 357.26 219.58 357.26C209.89 357.26 190.67 357.26 180.8 357.26C179.62 357.26 179.76 358.12 179.76 358.12L185.9 376.53C188.75 383.33 197.27 383.86 199.82 383.86C202.37 383.86 210.92 383.33 213.75 376.48L220.12 357.66ZM229.11 331.13L234.95 313.9C234.95 313.9 235.11 313.43 234.47 313.43C217.38 313.43 183.36 313.43 166.11 313.43C164.99 313.43 165.08 314.09 165.08 314.09L170.61 330.56C170.61 330.56 170.8 331.43 171.68 331.43C186.01 331.43 214.35 331.43 228.57 331.43C228.95 331.43 229.11 331.13 229.11 331.13ZM249.73 270.26C249.73 270.26 249.97 269.59 249.09 269.59C224.72 269.59 178.49 269.56 151.62 269.56C150.24 269.56 150.59 270.64 150.59 270.64L156.01 287.02C156.01 287.02 156.22 287.6 157.14 287.6C177.68 287.6 237.18 287.6 243.34 287.6C243.99 287.6 244.14 286.98 244.14 286.98L249.73 270.26ZM259.24 242.17C260.25 239.11 262.46 232.48 263.56 229.47C263.89 228.56 262.47 228.81 262.47 228.81C242.26 232.74 222.15 234.42 199.83 234.42C177.82 234.42 158.52 232.89 138.55 229.06C138.55 229.06 136.66 228.46 137.19 230.45C138.14 234.02 140.48 240.29 141.68 242.81C142.09 243.69 142.97 243.69 142.97 243.69C142.97 243.69 228.36 243.75 256.93 243.75C257.93 243.75 258.92 243.15 259.24 242.17ZM355.12 101.31C355.12 59.4 325.43 16.05 275.74 16.05C258.92 16.05 238.59 27.27 223.74 35.46C221.04 36.95 218.92 38.22 217.05 39.34C214.91 40.61 212.18 42.13 212.18 44.07C212.18 45.88 220.92 49.19 228.64 51.24C247.97 56.36 277 56.36 277.24 58.33C277.48 60.3 260.07 63.74 245.88 63.74C231.99 63.74 218.48 61 205.74 55.59C202.63 54.27 199.81 52.65 196.72 50.83C190.84 47.36 185.82 43.73 182.11 40.95C180.96 40.08 179.73 39.14 178.49 38.18C175.36 35.77 172.11 33.28 169.84 31.84C154.28 21.95 137.3 16.05 124.4 16.05C74.71 16.05 45.02 59.4 45.02 101.31C45.02 116.54 45.75 134.8 50.68 155.82C50.68 155.82 53.15 164.46 54.62 168.04C59.19 179.17 74.58 190.74 93.51 199.08C103.94 203.67 115.76 207.53 128.64 210.57L130.72 211.05C151.82 215.84 175.69 218.37 199.83 218.37C224.65 218.37 249.15 215.7 270.68 210.65L272.81 210.14C285.01 207.16 296.22 203.44 306.14 199.07C325.45 190.57 339.96 180.19 344.23 168.66C345.37 165.57 347.57 160.08 348.26 157.07C353.15 135.79 355.12 116.34 355.12 101.31Z" />
	</g>
	<g id="Layer">
	</g>
	<g id="Layer">
	</g>
	<g id="Layer">
	</g>
	<g id="Layer">
	</g>
	<g id="Layer">
	</g>
	<g id="Layer">
	</g>
	<g id="Layer">
	</g>
	<g id="Layer">
	</g>
	<g id="Layer">
	</g>
	<g id="Layer">
	</g>
	<g id="Layer">
	</g>
	<g id="Layer">
	</g>
	<g id="Layer">
	</g>
	<g id="Layer">
	</g>
	<g id="Layer">
	</g>
</svg>