<svg xmlns="http://www.w3.org/2000/svg" viewBox="0 0 410 410" width="410" height="410">
	<style>
		tspan { white-space:pre }
		.shp0 { fill: #000000 } 
	</style>
	<g id="Layer">
		<path id="Layer" fill-rule="evenodd" class="shp0" d="M409.56 154.35C409.56 183.46 399.88 202.37 379.96 212.19C363.05 220.52 340.85 221.19 315.7 221.19C313.54 221.19 311.37 221.19 309.18 221.19C304.74 221.18 300.18 221.18 295.74 221.19C267.88 221.24 243.3 221.23 224.95 212.19C216.32 207.93 207.64 194.2 204.78 194.2C201.89 194.2 193.24 207.93 184.61 212.19C167.7 220.52 145.5 221.19 120.34 221.19C118.19 221.19 116.01 221.19 113.82 221.19C109.38 221.18 104.83 221.18 100.38 221.19C72.52 221.24 47.95 221.23 29.6 212.19C9.68 202.38 0 183.46 0 154.35C0 122.68 11.28 86.78 30.18 58.31C51.56 26.09 78.88 8.36 107.1 8.36C135.32 8.36 162.64 26.09 184.02 58.31C192.64 71.29 202.64 100.81 204.78 100.81C206.8 100.81 216.91 71.29 225.53 58.31C246.92 26.09 274.23 8.35 302.46 8.35C330.67 8.35 357.99 26.09 379.38 58.31C398.27 86.78 409.56 122.68 409.56 154.35ZM195.35 154.35C195.35 149.83 195.08 145.21 194.57 140.53C194.51 139.97 194.39 138.83 192.64 138.83L159.3 138.83C159.3 138.83 156.41 138.9 156.41 141.44C156.41 143.23 156.41 148.57 156.41 148.57C156.41 155.84 150.49 161.76 143.22 161.76L82.92 161.76C75.65 161.76 69.74 155.84 69.74 148.57L69.74 111.27C69.74 104 75.65 98.08 82.92 98.08L143.22 98.08C150.49 98.08 156.41 104 156.41 111.27C156.41 111.27 156.41 115.15 156.41 116.44C156.41 119.78 158.8 119.98 158.8 119.98L188.8 119.98C190.97 119.98 190.32 117.94 190.04 116.92C185.44 100.03 177.99 83.32 168.31 68.74C150.79 42.35 128.48 27.21 107.1 27.21C85.72 27.21 63.41 42.34 45.89 68.74C28.96 94.24 18.85 126.25 18.85 154.35C18.85 197.8 41.71 202.34 93.86 202.34C96 202.34 98.16 202.33 100.34 202.33C102.58 202.33 104.83 202.32 107.1 202.32C109.38 202.32 111.63 202.33 113.86 202.33C116.04 202.33 118.2 202.34 120.34 202.34C172.49 202.34 195.35 197.8 195.35 154.35ZM390.7 154.35C390.7 126.25 380.6 94.24 363.67 68.74C346.15 42.35 323.84 27.21 302.46 27.21C281.07 27.21 258.76 42.34 241.24 68.74C231.33 83.67 223.76 100.83 219.19 118.13C219.02 118.75 219.01 119.98 220.39 119.98L250.3 119.98C250.3 119.98 253.14 119.94 253.14 117.11C253.14 115.65 253.14 111.27 253.14 111.27C253.14 104 259.06 98.08 266.33 98.08L326.63 98.08C333.9 98.08 339.82 104 339.82 111.27L339.82 148.57C339.82 155.84 333.9 161.76 326.63 161.76L266.33 161.76C259.06 161.76 253.14 155.84 253.14 148.57C253.14 148.57 253.14 143.6 253.14 141.94C253.14 139.11 249.64 138.83 249.64 138.83L216.55 138.83C215.3 138.83 215.08 139.63 215.04 140.03C214.49 144.88 214.21 149.67 214.21 154.35C214.21 197.8 237.06 202.34 289.22 202.34C291.35 202.34 293.51 202.33 295.69 202.33C297.93 202.33 300.18 202.32 302.46 202.32C304.73 202.32 306.98 202.33 309.21 202.33C311.39 202.33 313.55 202.34 315.69 202.34C367.85 202.34 390.7 197.8 390.7 154.35Z" />
		<path id="Layer" fill-rule="evenodd" class="shp0" d="M364.14 286.96C364.14 311.68 355.34 339.69 340.61 361.89C323.78 387.24 302.16 401.21 279.74 401.21C257.33 401.21 235.71 387.24 218.88 361.89C213.26 353.42 206.88 334.45 204.77 334.45C202.38 334.45 196.29 353.42 190.67 361.89C173.84 387.24 152.22 401.21 129.8 401.21C107.38 401.21 85.77 387.24 68.94 361.89C54.2 339.69 45.41 311.68 45.41 286.96C45.41 263.7 53.24 248.54 69.35 240.6C83.88 233.44 103 233.42 124.65 233.47C128.05 233.48 131.55 233.48 134.96 233.47C156.64 233.42 175.73 233.44 190.26 240.6C196.23 243.54 202.38 252.45 204.78 252.45C207.14 252.45 213.32 243.54 219.29 240.6C233.82 233.44 252.94 233.42 274.59 233.47C278 233.48 281.49 233.48 284.9 233.47C306.59 233.42 325.68 233.44 340.21 240.6C356.32 248.54 364.15 263.7 364.14 286.96ZM195.08 293.92C195.26 291.57 195.35 289.25 195.35 286.96C195.35 255.45 179.32 252.32 139.97 252.32C138.33 252.32 136.68 252.32 135 252.32C131.57 252.33 128.05 252.33 124.61 252.32C122.94 252.32 121.29 252.32 119.65 252.32C80.29 252.32 64.27 255.45 64.27 286.96C64.27 329.01 95.13 382.35 129.81 382.35C156.46 382.35 180.86 350.85 190.73 317.17C190.88 316.63 191.14 315.53 189.64 315.53L172.26 315.53C172.26 315.53 169.71 315.61 169.71 317.78C169.71 318.46 169.71 320.5 169.71 320.5C169.71 327.21 164.25 332.68 157.53 332.68L111.25 332.68C104.54 332.68 99.07 327.21 99.07 320.5L99.07 291.87C99.07 285.15 104.54 279.69 111.25 279.69L157.53 279.69C164.25 279.69 169.71 285.16 169.71 291.87C169.71 291.87 169.71 293.49 169.71 294.03C169.71 296.9 172.64 296.68 172.64 296.68L193.01 296.68C195.14 296.68 195.01 294.83 195.08 293.92ZM345.3 286.96C345.3 255.45 329.27 252.31 289.91 252.31C288.27 252.31 286.62 252.32 284.94 252.32C281.51 252.33 277.99 252.33 274.56 252.32C272.88 252.32 271.23 252.31 269.59 252.31C230.23 252.31 214.21 255.45 214.21 286.96C214.21 289.44 214.32 291.96 214.53 294.52C214.58 295.23 214.51 296.68 216.89 296.68L237.3 296.68C237.3 296.68 239.84 296.44 239.84 294.11C239.84 293.55 239.84 291.87 239.84 291.87C239.84 285.16 245.31 279.69 252.02 279.69L298.3 279.69C305.02 279.69 310.48 285.16 310.48 291.87L310.48 320.5C310.48 327.22 305.02 332.68 298.3 332.68L252.02 332.68C245.31 332.68 239.84 327.22 239.84 320.5C239.84 320.5 239.84 318.27 239.84 317.53C239.84 315.03 237.55 315.53 237.55 315.53L219.97 315.53C218.55 315.53 218.63 316.48 218.77 316.96C228.6 350.71 253.04 382.35 279.75 382.35C314.43 382.35 345.29 329.01 345.3 286.96Z" />
	</g>
	<g id="Layer">
	</g>
	<g id="Layer">
	</g>
	<g id="Layer">
	</g>
	<g id="Layer">
	</g>
	<g id="Layer">
	</g>
	<g id="Layer">
	</g>
	<g id="Layer">
	</g>
	<g id="Layer">
	</g>
	<g id="Layer">
	</g>
	<g id="Layer">
	</g>
	<g id="Layer">
	</g>
	<g id="Layer">
	</g>
	<g id="Layer">
	</g>
	<g id="Layer">
	</g>
	<g id="Layer">
	</g>
</svg>