<svg xmlns="http://www.w3.org/2000/svg" viewBox="0 0 105 100" width="105" height="100">
	<style>
		tspan { white-space:pre }
		.shp0 { fill: #000000 } 
	</style>
	<g id="Page-1">
		<g id="Group">
			<g id="tooth">
				<path id="Shape" fill-rule="evenodd" class="shp0" d="M104.22 30.95C104.22 42.05 100.1 58.18 93.18 74.11C90.1 81.21 86.84 87.34 83.75 91.85C80.05 97.24 76.89 99.86 74.07 99.86C72.83 99.86 70.56 99.33 69.3 95.79C68.09 92.39 67.01 88.44 65.87 84.26C64.14 77.94 62.36 71.4 60.01 66.49C57.64 61.53 55.13 59.12 52.31 59.12L51.91 59.12C45.58 59.12 41.65 73 38.49 84.15C37.29 88.37 36.17 92.34 34.92 95.8C33.63 99.36 31.33 99.89 30.08 99.89C27.25 99.89 24.09 97.31 20.4 92C17.3 87.54 14.04 81.47 10.98 74.44C4.1 58.64 0 42.38 0 30.95C0 22.95 2.83 15.37 7.97 9.62C13.38 3.57 20.82 0.23 28.92 0.23C35.3 0.23 42.12 4.01 47.09 6.76C48.91 7.76 51.38 9.13 52.11 9.22C52.84 9.13 55.33 7.76 57.15 6.76C62.14 4 68.97 0.23 75.3 0.23C83.41 0.23 90.84 3.57 96.25 9.62C101.39 15.37 104.22 22.95 104.22 30.95ZM73.99 17.99C74.01 18.16 73.37 18.33 73.37 18.33C73.34 18.34 70.45 19.11 66.15 19.11C61.94 19.11 57.84 18.27 53.98 16.64C52.97 16.21 52.02 15.64 51.25 15.19C49.46 14.14 47.93 13.03 46.8 12.19C46.45 11.92 46.07 11.63 45.69 11.33C44.73 10.59 43.73 9.83 43.02 9.38C38.2 6.32 32.93 4.49 28.92 4.49C13.48 4.49 4.25 17.94 4.25 30.95C4.25 41.66 8.33 57.68 14.88 72.74C17.79 79.42 20.99 85.4 23.89 89.57C28.06 95.57 29.7 95.7 30.08 95.64C30.57 95.57 30.65 95.09 30.92 94.35C32.12 91.03 33.22 87.13 34.4 82.99C36.23 76.5 38.13 69.79 40.64 64.58C43.77 58.04 47.46 54.86 51.91 54.86L52.31 54.86C56.93 54.86 60.71 58.07 63.85 64.66C66.36 69.92 68.2 76.64 69.97 83.13C71.09 87.24 72.15 91.11 73.31 94.36C73.62 95.24 73.67 95.53 74.07 95.61C74.73 95.74 76.89 94.32 80.24 89.44C83.14 85.22 86.35 79.17 89.28 72.42C95.87 57.23 99.97 41.34 99.97 30.95C99.97 17.94 90.74 4.49 75.3 4.49C70.06 4.49 63.79 7.95 59.2 10.48C58.37 10.94 54.92 12.95 54.92 13.36C54.92 13.79 58.1 15.22 60.78 15.93C66.74 17.5 73.28 17.82 73.35 17.82C73.35 17.82 73.97 17.83 73.99 17.99Z" />
			</g>
			<g id="sparkler-copy">
				<path id="Combined-Shape" fill-rule="evenodd" class="shp0" d="M82.5 50C78.43 43.25 72.75 37.57 66 33.5C72.75 29.43 78.43 23.75 82.5 17C86.57 23.75 92.25 29.43 99 33.5C92.25 37.57 86.57 43.25 82.5 50ZM82.69 43.78C85.18 39.65 88.65 36.18 92.78 33.69C88.65 31.2 85.18 27.73 82.69 23.6C80.2 27.73 76.73 31.2 72.6 33.69C76.73 36.18 80.2 39.65 82.69 43.78Z" />
			</g>
		</g>
	</g>
</svg>