<svg xmlns="http://www.w3.org/2000/svg" viewBox="0 0 487 487" width="487" height="487">
	<style>
		tspan { white-space:pre }
		.shp0 { fill: #000000 } 
	</style>
	<g id="Layer">
		<path id="Layer" fill-rule="evenodd" class="shp0" d="M486.1 153.7C486.1 205.4 466.9 280.8 434.6 355.1C420.2 388.2 405.1 416.9 390.6 437.9C373.5 462.9 358.8 475.1 345.9 475.1C340.2 475.1 329.8 472.8 324.1 456.5C318.5 440.6 313.5 422.1 308.1 402.6C300.1 373 291.7 342.6 280.7 319.5C269.4 296.1 257.5 284.7 244.1 284.7L242.2 284.7C212 284.7 193.6 349.7 178.8 402.1C173.2 421.7 168 440.4 162.1 456.5C156.2 472.9 145.8 475.3 140.1 475.3C127.1 475.3 112.4 463.3 95.3 438.7C80.8 417.9 65.5 389.6 51.3 356.7C19.1 282.9 0 207 0 153.7C0 116.4 13.2 81.2 37.1 54.4C62.2 26.3 96.8 10.8 134.5 10.8C164.1 10.8 195.9 28.5 219.1 41.3C228.2 46.3 239.4 52.5 242.9 52.9C246.4 52.5 257.6 46.3 266.7 41.3C290 28.5 321.9 10.9 351.3 10.9C388.9 10.9 423.6 26.4 448.7 54.5C472.6 81.3 485.9 116.5 486.1 153.7ZM434.6 303.8C425.8 297 409.3 285 386.7 273.3C355 256.8 304.5 237.2 243.7 237.2C143.1 237.2 69.5 290.7 50.9 305.8C56.1 320.4 61.9 334.9 68.2 349.4C81.8 380.6 96.8 408.6 110.4 428.2C129.8 456 137.4 458.1 139.8 456.8C141.6 455.7 143.1 453.3 144.2 450.3C149.9 434.8 155 416.5 160.5 397.1C169.1 366.9 178 335.6 189.7 311.2C204.1 280.8 221.2 266.1 241.8 266.1L243.7 266.1C265.1 266.1 282.5 280.9 297.1 311.5C308.8 336.1 317.5 367.4 325.7 397.8C331 417 336 435.1 341.4 450.3C342.7 454 343.4 456.7 345.6 456.5C349.1 456.2 359.1 450.5 374.9 427.5C388.5 407.7 403.5 379.4 417.2 347.8C423.5 333.1 429.4 318.3 434.6 303.8ZM442.7 279.8C458.2 232 467 186.9 467 153.8C467 92.7 423.8 29.5 351.2 29.5C326.6 29.5 297.2 45.8 275.7 57.6C265.3 63.2 255.6 67.9 255 69.9C254.3 72.3 268.1 80.2 283.2 84.1C311.4 91.5 340.8 91.6 341.9 93.5C343.1 95.6 300.2 106.8 251.8 86.2C247.2 84.3 243 81.9 239.1 79.5C231.1 74.8 224 69.8 218.3 65.5C212.6 61.2 205.3 55.4 200.6 52.4C181.3 40.1 155.8 29.5 134.4 29.5C62 29.5 18.6 92.7 18.6 153.8C18.6 188 27.5 233.6 42.9 281.7C53 274.1 68.9 263.2 89.7 252.3C123.8 234.4 178.3 213.1 243.9 213.1C310 213.1 364.5 234.4 398.6 252.3C417.8 262.3 432.7 272.4 442.7 279.8ZM146.9 349.3C135.1 364.1 118.7 370.8 110.3 364.1C101.9 357.4 104.6 340 116.4 325.1C128.2 310.3 144.6 303.6 153 310.3C161.4 317 158.7 334.5 146.9 349.3ZM376.5 328.9C384.4 346 383 363.6 373.2 368.1C363.4 372.6 349.1 362.4 341.2 345.1C333.3 328 334.7 310.4 344.5 305.9C354.3 301.6 368.6 311.8 376.5 328.9Z" />
	</g>
	<g id="Layer">
	</g>
	<g id="Layer">
	</g>
	<g id="Layer">
	</g>
	<g id="Layer">
	</g>
	<g id="Layer">
	</g>
	<g id="Layer">
	</g>
	<g id="Layer">
	</g>
	<g id="Layer">
	</g>
	<g id="Layer">
	</g>
	<g id="Layer">
	</g>
	<g id="Layer">
	</g>
	<g id="Layer">
	</g>
	<g id="Layer">
	</g>
	<g id="Layer">
	</g>
	<g id="Layer">
	</g>
</svg>