<svg xmlns="http://www.w3.org/2000/svg" viewBox="0 0 420 420" width="420" height="420">
	<style>
		tspan { white-space:pre }
		.shp0 { fill: #000000 } 
	</style>
	<g id="Layer">
		<g id="Layer">
			<path id="Layer" fill-rule="evenodd" class="shp0" d="M317.39 111.77C330.13 126.02 337.14 144.78 337.14 164.57C337.14 191.48 327.19 230.47 310.52 268.88C303.09 286.01 295.2 300.84 287.7 311.76C278.32 325.43 270.04 332.08 262.37 332.08C258.7 332.08 252.02 330.58 248.46 320.58C245.52 312.34 242.93 302.84 240.19 292.79C236.09 277.79 231.85 262.27 226.34 250.73C221.16 239.88 215.92 234.61 210.31 234.61L209.35 234.61C196.21 234.61 186.33 269.48 179.79 292.56C176.91 302.72 174.21 312.26 171.19 320.62C167.56 330.66 160.82 332.16 157.12 332.16C149.43 332.16 141.14 325.61 131.78 312.14C124.27 301.33 116.39 286.64 109 269.66C92.41 231.55 82.51 192.26 82.51 164.57C82.51 144.77 89.53 126.02 102.26 111.76C115.7 96.72 134.2 88.43 154.34 88.43C170.29 88.43 186.95 97.65 199.11 104.38C202.02 105.99 207.82 109.87 209.83 109.87C211.85 109.87 217.68 105.98 220.59 104.37C232.79 97.64 249.48 88.43 265.31 88.43C285.46 88.43 303.96 96.72 317.39 111.77ZM321.67 164.57C321.67 134.75 300.59 103.91 265.31 103.91C253.46 103.91 238.79 112 228.08 117.91C226.11 119 224.58 119.91 223.23 120.72C222.68 121.05 222.13 121.56 222.13 122.12C222.13 122.91 228.25 124.91 231.25 126.06C250.18 133.32 276.33 130.16 276.33 131.84C276.33 134.32 254.18 138.88 243.42 138.88C232.98 138.88 222.83 136.82 213.26 132.75C210.88 131.74 208.76 130.52 206.43 129.15C202.04 126.56 198.31 123.86 195.54 121.79C194.69 121.15 193.79 120.45 192.86 119.74C190.61 118.01 188.27 116.21 186.67 115.19C175.54 108.12 163.46 103.91 154.34 103.91C119.07 103.91 97.99 134.75 97.99 164.57C97.99 189.85 107.65 227.76 123.19 263.48C130.08 279.31 137.64 293.45 144.49 303.3C150.69 312.22 153.61 315.65 155.53 316.21C156.31 316.45 156.51 315.69 156.64 315.35C159.47 307.52 162.09 298.25 164.87 288.44C169.32 272.74 173.91 256.55 179.99 243.87C187.98 227.22 197.58 219.13 209.35 219.13L210.31 219.13C222.48 219.13 232.3 227.29 240.31 244.06C246.42 256.86 250.84 273.05 255.11 288.7C257.78 298.48 260.29 307.71 263.04 315.39C263.21 315.87 263.61 316.03 264.02 315.66C267.18 312.82 268.85 311.88 274.94 303.01C281.78 293.03 289.38 278.72 296.33 262.71C311.96 226.69 321.67 189.09 321.67 164.57Z" />
			<path id="Layer" fill-rule="evenodd" class="shp0" d="M374.11 297.02C347.1 344.28 232.63 412.24 227.77 415.11C222.81 418.04 216.4 419.66 209.73 419.66C203.01 419.66 196.55 418.02 191.56 415.04C186.74 412.17 73.31 344.27 46.31 297.02C19.21 249.59 24.01 104.81 24.22 98.67C24.66 86.48 33.39 73.57 44.53 68.64L191.79 3.38C196.71 1.2 203.06 0 209.67 0C216.27 0 222.62 1.2 227.55 3.38L374.8 68.63C385.92 73.56 394.69 86.44 395.21 98.59C395.47 104.74 401.23 249.56 374.11 297.02ZM375.22 99.44C375.04 94.94 370.81 88.74 366.7 86.92L219.44 21.67C217.08 20.62 213.43 20 209.67 20C205.91 20 202.25 20.62 199.89 21.67L52.63 86.92C48.54 88.73 44.37 94.9 44.21 99.37C42.79 139.62 43.52 251.81 63.68 287.1C88.08 329.8 200.66 397.19 201.79 397.86C203.68 398.99 206.65 399.66 209.73 399.66C212.79 399.66 215.73 399 217.61 397.89C218.75 397.21 332.35 329.78 356.75 287.1C376.9 251.82 376.92 139.67 375.22 99.44Z" />
		</g>
	</g>
	<g id="Layer">
	</g>
	<g id="Layer">
	</g>
	<g id="Layer">
	</g>
	<g id="Layer">
	</g>
	<g id="Layer">
	</g>
	<g id="Layer">
	</g>
	<g id="Layer">
	</g>
	<g id="Layer">
	</g>
	<g id="Layer">
	</g>
	<g id="Layer">
	</g>
	<g id="Layer">
	</g>
	<g id="Layer">
	</g>
	<g id="Layer">
	</g>
	<g id="Layer">
	</g>
	<g id="Layer">
	</g>
</svg>