<svg xmlns="http://www.w3.org/2000/svg" viewBox="0 0 424 424" width="424" height="424">
	<style>
		tspan { white-space:pre }
		.shp0 { fill: #000000 } 
	</style>
	<g id="Layer">
		<path id="Layer" fill-rule="evenodd" class="shp0" d="M423.71 201.5C423.71 229.7 413.27 270.59 395.79 310.9C387.99 328.87 379.71 344.42 371.85 355.87C362.08 370.12 353.49 377.04 345.58 377.04C341.83 377.04 335 375.5 331.34 365.23C328.25 356.58 325.53 346.62 322.65 336.07C318.35 320.29 313.89 303.98 308.09 291.83C302.58 280.28 296.95 274.66 290.89 274.66L289.88 274.66C275.78 274.66 265.76 310.02 258.45 335.83C255.44 346.47 252.6 356.49 249.42 365.26C245.69 375.58 238.8 377.13 235.03 377.13C227.09 377.13 218.49 370.3 208.73 356.27C200.86 344.93 192.6 329.53 184.85 311.72C172.13 282.49 163.26 253.9 159.38 228.16C159.26 226.65 157.44 226.59 157.44 226.59C139.66 226.59 127.55 269.34 118.71 300.56C115.1 313.28 111.72 325.21 107.95 335.64C103.75 347.26 96.1 348.99 91.91 348.99C82.86 348.99 72.92 341.01 61.51 324.6C52.15 311.12 42.32 292.79 33.1 271.6C12.37 223.98 0 174.94 0 140.41C0 116 8.64 92.87 24.35 75.29C40.88 56.78 63.64 46.59 88.42 46.59C107.99 46.59 128.67 58.03 143.77 66.39C148.38 68.93 155.86 73.55 158.04 73.55C160.25 73.55 167.79 68.91 172.38 66.37C187.52 58.02 208.24 46.59 227.67 46.59C252.46 46.59 275.21 56.78 291.75 75.29C305.36 90.54 313.68 109.11 315.56 130.09C315.59 131.06 316.61 130.87 317.09 130.64C325.88 126.45 337.47 121.93 348.67 121.93C369.71 121.93 389.03 130.58 403.07 146.3C416.38 161.2 423.71 180.81 423.71 201.5ZM177.7 146.3C191.74 130.58 211.06 121.92 232.11 121.92C248.75 121.92 266.19 131.57 278.93 138.62C282.09 140.37 288.39 144.46 290.39 144.46C292.14 144.46 296.4 141.64 299.29 140.05C300.13 139.54 300.07 138.77 300.06 138.35C299.11 100.75 272.19 62.59 227.67 62.59C212.36 62.59 193.73 72.87 180.12 80.37C177.64 81.74 175.7 82.91 173.98 83.93C172.37 84.89 170.09 86.14 170.09 86.85C170.09 89.42 178.2 91.71 184.49 93.75C208.72 101.6 232.04 97.84 232.36 100.47C232.68 103.09 213.34 106.47 200.2 106.47C187.33 106.47 174.82 103.93 163.02 98.93C160.11 97.69 157.51 96.19 154.65 94.5C149.21 91.3 144.58 87.94 141.15 85.37C140.08 84.57 138.94 83.7 137.79 82.81C134.92 80.61 131.96 78.33 129.9 77.02C115.68 67.98 100.17 62.59 88.42 62.59C43.09 62.59 16 102.16 16 140.41C16 172.36 28.17 220.18 47.77 265.21C56.46 285.17 66 303.01 74.66 315.47C84.7 329.92 90.14 333.35 91.56 332.9C92.09 332.73 92.43 331.5 92.9 330.19C96.48 320.31 99.78 308.66 103.27 296.33L103.31 296.19C108.85 276.66 114.57 256.45 122.15 240.66C131.84 220.46 142.25 210.89 156.26 210.85C157.51 210.94 157.34 210.07 157.32 209.82C157.15 206.92 157.06 204.14 157.06 201.5C157.06 180.81 164.39 161.2 177.7 146.3ZM408.26 201.5C408.26 169.98 385.97 137.39 348.67 137.39C336.12 137.39 320.66 145.92 309.37 152.15C307.3 153.28 305.69 154.25 304.26 155.1C303.48 155.57 302.06 156.38 302.21 157.15C302.36 157.97 308.49 160.09 312.79 161.44C333.97 168.1 357.97 165.1 358.11 167.39C358.33 170.96 336.85 174.12 325.67 174.12C314.76 174.12 304.16 171.97 294.15 167.72C291.67 166.66 289.45 165.39 287.02 163.96C282.41 161.24 278.51 158.41 275.62 156.25C274.72 155.57 273.76 154.83 272.78 154.08C270.38 152.24 267.95 150.37 266.28 149.31C254.53 141.84 241.76 137.39 232.11 137.39C194.81 137.39 172.52 169.98 172.52 201.5C172.52 228.12 182.67 267.99 199.02 305.56C206.27 322.21 214.23 337.09 221.43 347.45C228.44 357.54 232.59 362.02 234.04 361.39C234.38 361.24 234.68 360.59 234.89 360.01C237.88 351.74 240.65 341.97 243.58 331.62C248.22 315.21 253.03 298.26 259.41 284.97C267.72 267.63 277.69 259.21 289.88 259.21L290.89 259.21C303.51 259.21 313.7 267.7 322.04 285.17C328.44 298.58 333.08 315.57 337.57 332C340.37 342.27 342.43 350.28 345.31 358.36C345.49 358.88 346.25 360.78 346.76 361.1C348.54 362.25 352.65 356.54 359.11 347.13C366.31 336.63 374.3 321.58 381.6 304.74C398.04 266.86 408.25 227.3 408.26 201.5Z" />
	</g>
	<g id="Layer">
	</g>
	<g id="Layer">
	</g>
	<g id="Layer">
	</g>
	<g id="Layer">
	</g>
	<g id="Layer">
	</g>
	<g id="Layer">
	</g>
	<g id="Layer">
	</g>
	<g id="Layer">
	</g>
	<g id="Layer">
	</g>
	<g id="Layer">
	</g>
	<g id="Layer">
	</g>
	<g id="Layer">
	</g>
	<g id="Layer">
	</g>
	<g id="Layer">
	</g>
	<g id="Layer">
	</g>
</svg>