<svg xmlns="http://www.w3.org/2000/svg" viewBox="0 0 411 411" width="411" height="411">
	<style>
		tspan { white-space:pre }
		.shp0 { fill: #000000 } 
	</style>
	<g id="Layer">
		<g id="Layer">
			<path id="Layer" fill-rule="evenodd" class="shp0" d="M401.61 380.59L380.06 402.14C374.48 407.71 367.06 410.78 359.17 410.78C351.27 410.78 343.85 407.71 338.27 402.14L254.09 318.02C249.86 313.79 243.36 308.34 239.8 306.55C231.66 302.44 218.01 297.36 204.8 292.45C191.54 287.52 179.02 282.86 170.46 278.69C161.86 274.5 151.94 265.06 148.07 261.19L9.17 122.29C-2.35 110.77 -2.35 92.03 9.17 80.51L81.04 8.64C86.62 3.07 94.03 0 101.93 0C109.83 0 117.25 3.07 122.82 8.64L262.72 148.54C274.24 160.06 274.24 178.8 262.72 190.32L238.57 214.47C255 220.38 282.45 230.49 293.9 236.13C302.97 240.59 313.35 250.61 316.31 253.58L401.6 338.8C413.13 350.32 413.13 369.06 401.61 380.59ZM251.14 171.49C251.43 170.13 251.43 168.73 251.14 167.38C250.98 167.13 250.81 166.88 250.59 166.67C250.59 166.67 247.89 163.97 246.33 162.41C245.87 161.95 245.28 162.4 245.28 162.4C238.26 166.24 233.85 169.07 233.41 168.64C232.76 167.98 235.65 164.06 239.49 157.05C239.49 157.05 240 156.1 239.18 155.25C238 154.02 235.82 151.84 234.67 150.76C233.96 150.09 233.02 150.59 233.02 150.59C222.13 157.84 215.23 160.26 214.64 159.68C213.94 158.98 216.45 152.25 223.69 141.35C223.69 141.35 224.29 140.39 223.48 139.57C218.58 134.6 192.95 109.34 181.15 97.23C180.58 96.64 179.37 97.18 179.37 97.18C164.44 109.99 152.63 114.59 151.76 113.72C150.75 112.72 155.25 101.07 168.07 86.14C168.07 86.14 169.12 85.34 168.24 84.31C166.55 82.32 161.64 77.63 159.4 75.48C158.96 75.05 158.36 75.14 158.07 75.3C146.23 81.82 139.96 86.65 138.98 85.67C138.21 84.9 141.36 77.86 149.28 66.69C149.28 66.69 149.94 66.07 149.09 65.17C145.91 61.75 132.31 48.4 127.3 43.38C126.66 42.73 125.81 43.04 125.81 43.04C116.42 49.17 110.06 53.49 109.35 52.77C108.52 51.95 112.82 45.89 118.95 36.51C118.95 36.51 119.5 35.65 118.76 34.83C116.56 32.43 105.12 21.2 105.12 21.2C103.62 19.7 101.09 19.7 99.59 21.2L68.04 52.75L220.08 202.71L250.59 172.19C250.81 171.98 250.98 171.74 251.14 171.49ZM387.47 352.94L302.17 267.72C297.05 262.59 289.77 256.38 285.07 254.07C269.65 246.48 225.6 236.22 212.45 223.28C175.37 186.78 52.44 65.53 52.44 65.53L23.32 94.65C19.59 98.37 19.59 104.43 23.32 108.15L162.21 247.05C168.58 253.41 175.26 258.78 179.21 260.7C186.91 264.45 199.55 269.15 211.77 273.7C225.49 278.8 239.68 284.08 248.81 288.69C257.12 292.88 267.11 302.76 268.23 303.87L352.41 387.99C354.21 389.79 356.61 390.78 359.16 390.78C361.72 390.78 364.12 389.79 365.91 387.99L387.46 366.44C391.19 362.72 391.19 356.67 387.47 352.94Z" />
		</g>
	</g>
	<g id="Layer">
	</g>
	<g id="Layer">
	</g>
	<g id="Layer">
	</g>
	<g id="Layer">
	</g>
	<g id="Layer">
	</g>
	<g id="Layer">
	</g>
	<g id="Layer">
	</g>
	<g id="Layer">
	</g>
	<g id="Layer">
	</g>
	<g id="Layer">
	</g>
	<g id="Layer">
	</g>
	<g id="Layer">
	</g>
	<g id="Layer">
	</g>
	<g id="Layer">
	</g>
	<g id="Layer">
	</g>
</svg>