<?xml version="1.0" encoding="UTF-8" standalone="no"?>
<svg
   xmlns:dc="http://purl.org/dc/elements/1.1/"
   xmlns:cc="http://creativecommons.org/ns#"
   xmlns:rdf="http://www.w3.org/1999/02/22-rdf-syntax-ns#"
   xmlns:svg="http://www.w3.org/2000/svg"
   xmlns="http://www.w3.org/2000/svg"
   viewBox="0 0 767.15466 793.70801"
   height="793.70801"
   width="767.15466"
   xml:space="preserve"
   id="svg2"
   version="1.1"><metadata
     id="metadata8"><rdf:RDF><cc:Work
         rdf:about=""><dc:format>image/svg+xml</dc:format><dc:type
           rdf:resource="http://purl.org/dc/dcmitype/StillImage" /></cc:Work></rdf:RDF></metadata><defs
     id="defs6"><clipPath
       id="clipPath18"
       clipPathUnits="userSpaceOnUse"><path
         id="path16"
         d="M 0,595.281 H 575.366 V 0 H 0 Z" /></clipPath></defs><g
     transform="matrix(1.3333333,0,0,-1.3333333,0,793.708)"
     id="g10"><g
       id="g12"><g
         clip-path="url(#clipPath18)"
         id="g14"><g
           transform="translate(454.4668,163.9316)"
           id="g20"><path
             id="path22"
             style="fill:#000000;fill-opacity:1;fill-rule:nonzero;stroke:none"
             d="m 0,0 c 0.018,0.979 0.073,1.945 0.073,2.926 0,92.004 -74.852,166.856 -166.856,166.856 -92.005,0 -166.858,-74.852 -166.858,-166.856 0,-0.981 0.059,-1.947 0.074,-2.926 h -85.808 V 254.542 H 85.805 L 85.805,0 Z m -166.783,-128.836 c -72.654,0 -131.762,59.109 -131.762,131.762 0,72.652 59.108,131.761 131.762,131.761 72.652,0 131.761,-59.107 131.761,-131.761 0,-72.656 -59.106,-131.762 -131.761,-131.762 m -150.801,490.234 v -15.856 c 0,-9.69 7.858,-17.548 17.547,-17.548 9.689,0 17.548,7.858 17.548,17.548 v 15.856 h 98.158 v -15.856 c 0,-9.69 7.858,-17.548 17.548,-17.548 9.688,0 17.547,7.858 17.547,17.548 v 15.856 h 102.515 v -15.856 c 0,-9.69 7.859,-17.548 17.548,-17.548 9.69,0 17.548,7.858 17.548,17.548 v 15.856 h 97.433 v -71.757 h -505.18 v 71.757 z m 420.939,35.096 h -114.98 v 17.307 c 0,9.69 -7.858,17.548 -17.548,17.548 -9.689,0 -17.548,-7.858 -17.548,-17.548 v -17.307 h -102.515 v 17.307 c 0,9.69 -7.859,17.548 -17.547,17.548 -9.69,0 -17.548,-7.858 -17.548,-17.548 v -17.307 h -98.158 v 17.307 c 0,9.69 -7.859,17.548 -17.548,17.548 -9.689,0 -17.547,-7.858 -17.547,-17.548 v -17.307 h -119.335 c -9.689,0 -17.548,-7.859 -17.548,-17.548 V -17.547 c 0,-9.689 7.859,-17.547 17.548,-17.547 h 107.701 c 17.258,-73.742 83.512,-128.838 162.435,-128.838 78.923,0 145.177,55.1 162.434,128.838 h 107.702 c 9.688,0 17.546,7.858 17.546,17.547 v 396.493 c 0.003,9.689 -7.852,17.548 -17.544,17.548" /></g><g
           transform="translate(305.2305,162.4297)"
           id="g24"><path
             id="path26"
             style="fill:#000000;fill-opacity:1;fill-rule:nonzero;stroke:none"
             d="m 0,0 v 84.889 c 0,9.689 -7.858,17.547 -17.547,17.547 -9.689,0 -17.548,-7.858 -17.548,-17.547 v -92.16 c 0,-4.653 1.849,-9.116 5.139,-12.409 l 40.33,-40.334 c 3.428,-3.424 7.917,-5.138 12.409,-5.138 4.489,0 8.982,1.714 12.408,5.138 6.853,6.854 6.853,17.963 0,24.817 z" /></g></g></g></g></svg>