<?xml version="1.0" encoding="UTF-8" standalone="no"?>
<svg
   xmlns:dc="http://purl.org/dc/elements/1.1/"
   xmlns:cc="http://creativecommons.org/ns#"
   xmlns:rdf="http://www.w3.org/1999/02/22-rdf-syntax-ns#"
   xmlns:svg="http://www.w3.org/2000/svg"
   xmlns="http://www.w3.org/2000/svg"
   viewBox="0 0 793.70532 688.28003"
   height="688.28003"
   width="793.70532"
   xml:space="preserve"
   id="svg2"
   version="1.1"><metadata
     id="metadata8"><rdf:RDF><cc:Work
         rdf:about=""><dc:format>image/svg+xml</dc:format><dc:type
           rdf:resource="http://purl.org/dc/dcmitype/StillImage" /></cc:Work></rdf:RDF></metadata><defs
     id="defs6"><clipPath
       id="clipPath18"
       clipPathUnits="userSpaceOnUse"><path
         id="path16"
         d="M 0,516.21 H 595.279 V 0 H 0 Z" /></clipPath></defs><g
     transform="matrix(1.3333333,0,0,-1.3333333,0,688.28)"
     id="g10"><g
       id="g12"><g
         clip-path="url(#clipPath18)"
         id="g14"><g
           transform="translate(564.2935,344.8081)"
           id="g20"><path
             id="path22"
             style="fill:#000000;fill-opacity:1;fill-rule:nonzero;stroke:none"
             d="M 0,0 -38.088,-38.087 -168.876,92.701 c -2.566,2.567 -3.98,5.981 -3.98,9.613 0,3.632 1.414,7.043 3.98,9.613 l 28.477,28.476 c 2.567,2.568 5.981,3.982 9.611,3.982 3.63,0 7.044,-1.414 9.613,-3.982 L 0,19.229 C 2.566,16.661 3.98,13.248 3.98,9.615 3.98,5.983 2.566,2.567 0,0 M -116.146,-116.146 -266.101,33.807 c -2.247,2.247 -5.21,3.63 -8.376,3.904 l -76.681,6.704 c -0.399,0.036 -0.795,0.052 -1.187,0.052 -6.37,0 -11.953,-4.492 -13.234,-10.842 l -6.145,-30.483 c -3.841,-19.056 -22.46,-31.432 -41.528,-27.592 -9.23,1.86 -17.185,7.206 -22.396,15.049 -5.211,7.843 -7.058,17.247 -5.196,26.479 l 6.146,30.481 c 9.155,45.417 53.534,74.929 98.969,65.762 0.095,-0.018 0.192,-0.038 0.289,-0.054 L -204.146,89.76 -187.98,73.594 -57.192,-57.194 Z m -232.003,-167.691 c -3.815,-3.817 -10.028,-3.815 -13.842,0 l -6.93,6.929 c -3.816,3.817 -3.816,10.024 0,13.842 l 19.911,19.91 20.771,-20.771 z m -60.649,46.806 c -1.848,1.848 -2.866,4.307 -2.866,6.92 0,2.611 1.018,5.07 2.866,6.92 l 19.91,19.91 20.769,-20.769 -19.91,-19.91 c -3.815,-3.815 -10.026,-3.815 -13.84,0 z m -39.875,39.877 c -3.817,3.817 -3.817,10.026 0,13.84 l 19.91,19.91 20.771,-20.769 -19.908,-19.912 c -3.817,-3.815 -10.03,-3.817 -13.842,0 z m -39.878,39.877 c -3.816,3.819 -3.816,10.026 0,13.842 l 19.911,19.912 20.771,-20.771 -19.911,-19.911 c -3.815,-3.816 -10.028,-3.814 -13.842,0 z M 19.108,38.331 -102.066,159.506 c -7.672,7.672 -17.871,11.896 -28.72,11.896 -10.849,0 -21.048,-4.224 -28.718,-11.896 l -28.476,-28.475 c -4.382,-4.382 -7.505,-9.536 -9.464,-15.019 l -133.236,23.853 c -0.008,0.003 -0.02,0.003 -0.029,0.005 -59.908,11.892 -118.398,-27.056 -130.479,-86.97 l -6.146,-30.483 c -6.787,-33.663 15.08,-66.568 48.743,-73.355 33.664,-6.783 66.57,15.08 73.358,48.743 l 3.755,18.64 59.749,-5.224 156.028,-156.029 28.278,-28.277 c 5.727,-5.727 5.724,-15.045 0,-20.772 -5.724,-5.725 -15.042,-5.726 -20.768,0 l -75.749,75.748 c -5.277,5.277 -13.833,5.277 -19.107,0 -5.276,-5.275 -5.276,-13.83 0,-19.105 l 75.749,-75.75 c 2.774,-2.774 4.301,-6.463 4.301,-10.385 0,-3.922 -1.527,-7.609 -4.301,-10.383 -5.729,-5.726 -15.045,-5.725 -20.768,0 l -75.749,75.748 c -5.277,5.277 -13.833,5.277 -19.108,0 -5.275,-5.275 -5.275,-13.83 0,-19.105 l 75.749,-75.75 c 5.727,-5.723 5.727,-15.041 0,-20.768 -2.774,-2.775 -6.463,-4.301 -10.383,-4.301 -3.922,0 -7.611,1.526 -10.385,4.301 l -75.748,75.748 c -5.277,5.277 -13.833,5.277 -19.108,0 -5.275,-5.275 -5.275,-13.83 0,-19.105 l 75.749,-75.75 c 5.727,-5.727 5.725,-15.045 0,-20.77 -5.724,-5.724 -15.042,-5.726 -20.768,0 l -268.019,268.013 -35.393,35.394 c -5.277,5.276 -13.833,5.276 -19.108,0 -5.275,-5.276 -5.275,-13.83 0,-19.107 l 35.395,-35.394 38.517,-38.517 -21.232,-21.233 c -6.951,-6.951 -10.782,-16.195 -10.782,-26.029 0,-9.832 3.828,-19.076 10.782,-26.027 l 6.928,-6.93 c 6.078,-6.078 13.908,-9.766 22.35,-10.6 0.833,-8.441 4.522,-16.271 10.599,-22.345 l 6.929,-6.932 c 6.24,-6.24 14.182,-9.76 22.345,-10.572 0.826,-8.451 4.519,-16.293 10.604,-22.375 l 6.928,-6.928 c 6.078,-6.078 13.908,-9.767 22.35,-10.6 0.833,-8.443 4.521,-16.271 10.6,-22.349 l 6.928,-6.93 c 7.176,-7.176 16.603,-10.763 26.029,-10.763 9.426,0 18.852,3.587 26.029,10.763 l 21.232,21.233 50.879,-50.879 c 7.88,-7.879 18.353,-12.217 29.492,-12.217 11.14,0 21.616,4.34 29.493,12.217 7.463,7.463 11.701,17.263 12.13,27.744 10.483,0.43 20.283,4.668 27.748,12.131 7.692,7.691 11.698,17.666 12.114,27.761 10.096,0.418 20.071,4.424 27.761,12.114 7.692,7.693 11.698,17.666 12.115,27.763 10.096,0.416 20.072,4.422 27.762,12.114 16.263,16.263 16.263,42.722 0,58.984 l -18.724,18.725 68.508,68.507 47.639,47.639 c 15.832,15.838 15.832,41.605 -0.003,57.44" /></g><g
           transform="translate(531.5874,362.5684)"
           id="g24"><path
             id="path26"
             style="fill:#000000;fill-opacity:1;fill-rule:nonzero;stroke:none"
             d="m 0,0 c 7.462,0 13.512,-6.049 13.512,-13.511 0,-7.462 -6.05,-13.511 -13.512,-13.511 -7.462,0 -13.511,6.049 -13.511,13.511 C -13.511,-6.049 -7.462,0 0,0" /></g></g></g></g></svg>