<?xml version="1.0" encoding="UTF-8" standalone="no"?>
<svg
   xmlns:dc="http://purl.org/dc/elements/1.1/"
   xmlns:cc="http://creativecommons.org/ns#"
   xmlns:rdf="http://www.w3.org/1999/02/22-rdf-syntax-ns#"
   xmlns:svg="http://www.w3.org/2000/svg"
   xmlns="http://www.w3.org/2000/svg"
   viewBox="0 0 750.51868 793.70801"
   height="793.70801"
   width="750.51868"
   xml:space="preserve"
   id="svg2"
   version="1.1"><metadata
     id="metadata8"><rdf:RDF><cc:Work
         rdf:about=""><dc:format>image/svg+xml</dc:format><dc:type
           rdf:resource="http://purl.org/dc/dcmitype/StillImage" /></cc:Work></rdf:RDF></metadata><defs
     id="defs6"><clipPath
       id="clipPath18"
       clipPathUnits="userSpaceOnUse"><path
         id="path16"
         d="M 0,595.281 H 562.889 V 0 H 0 Z" /></clipPath></defs><g
     transform="matrix(1.3333333,0,0,-1.3333333,0,793.708)"
     id="g10"><g
       id="g12"><g
         clip-path="url(#clipPath18)"
         id="g14"><g
           transform="translate(429.6914,299.8232)"
           id="g20"><path
             id="path22"
             style="fill:#000000;fill-opacity:1;fill-rule:nonzero;stroke:none"
             d="m 0,0 c -0.462,9.248 -4.324,18.243 -11.405,25.327 -12.776,12.775 -31.767,15.114 -47.257,5.825 -3.136,-1.882 -5.888,-0.847 -7.252,-0.061 -1.362,0.786 -3.633,2.65 -3.572,6.309 0.298,18.063 -11.225,33.341 -28.673,38.015 -1.276,0.341 -2.548,0.599 -3.82,0.812 l 85.524,182.485 112.906,-52.916 z m -280.037,258.709 85.524,-182.485 c -1.272,-0.213 -2.548,-0.47 -3.819,-0.812 -17.449,-4.676 -28.973,-19.954 -28.673,-38.015 0.061,-3.661 -2.214,-5.525 -3.572,-6.309 -1.362,-0.783 -4.114,-1.818 -7.25,0.058 -15.498,9.292 -34.487,6.951 -47.26,-5.822 -7.081,-7.081 -10.942,-16.076 -11.405,-25.326 l -96.451,205.798 z M 8.212,-69.593 c 0.542,-2.013 0.812,-5.742 -3.433,-8.099 -12.462,-6.922 -19.904,-19.569 -19.904,-33.827 0,-14.253 7.441,-26.9 19.901,-33.822 4.245,-2.357 3.975,-6.088 3.436,-8.101 -0.533,-1.989 -2.132,-5.299 -6.853,-5.299 H 1.188 c -14.197,0.258 -27.019,-6.992 -34.148,-19.338 -7.129,-12.348 -7.008,-27.018 0.326,-39.246 2.497,-4.162 0.397,-7.258 -1.078,-8.729 -1.475,-1.472 -4.565,-3.576 -8.729,-1.078 -12.228,7.336 -26.899,7.455 -39.246,0.326 -12.345,-7.127 -19.577,-19.892 -19.34,-34.15 0.079,-4.854 -3.286,-6.482 -5.299,-7.022 -2.014,-0.541 -5.744,-0.81 -8.099,3.434 -6.924,12.461 -19.567,19.902 -33.825,19.902 -14.258,0 -26.901,-7.441 -33.824,-19.902 -2.356,-4.246 -6.086,-3.98 -8.1,-3.434 -2.013,0.54 -5.378,2.168 -5.299,7.024 0.237,14.256 -6.995,27.019 -19.34,34.148 -12.35,7.131 -27.018,7.008 -39.244,-0.326 -4.161,-2.5 -7.256,-0.396 -8.731,1.078 -1.475,1.475 -3.572,4.567 -1.075,8.729 7.331,12.228 7.452,26.898 0.323,39.246 -7.129,12.344 -19.901,19.59 -34.148,19.338 -4.911,0.012 -6.485,3.285 -7.024,5.299 -0.542,2.013 -0.812,5.744 3.433,8.101 12.463,6.922 19.904,19.569 19.904,33.822 0,14.258 -7.441,26.903 -19.904,33.827 -4.245,2.357 -3.975,6.084 -3.433,8.099 0.539,2.014 2.14,5.297 7.024,5.301 14.2,-0.234 27.019,6.994 34.148,19.338 7.129,12.346 7.008,27.017 -0.326,39.248 -2.497,4.161 -0.397,7.254 1.078,8.729 1.475,1.475 4.568,3.572 8.731,1.075 12.226,-7.331 26.897,-7.449 39.245,-0.323 12.347,7.129 19.576,19.893 19.339,34.148 -0.079,4.855 3.286,6.485 5.299,7.024 2.009,0.544 5.741,0.809 8.1,-3.433 6.923,-12.463 19.566,-19.904 33.824,-19.904 14.258,0 26.901,7.441 33.825,19.904 2.358,4.242 6.09,3.974 8.099,3.433 2.013,-0.539 5.378,-2.169 5.299,-7.024 -0.237,-14.252 6.995,-27.019 19.339,-34.148 12.348,-7.129 27.016,-7.01 39.245,0.326 4.161,2.497 7.256,0.397 8.729,-1.078 1.472,-1.475 3.572,-4.566 1.077,-8.729 V -5.71 c -7.331,-12.225 -7.452,-26.894 -0.323,-39.242 7.126,-12.346 19.836,-19.529 34.148,-19.338 4.837,-0.037 6.485,-3.289 7.024,-5.303 m 115.905,297.256 -141.466,66.304 c -3.788,1.774 -8.127,1.974 -12.057,0.549 -3.935,-1.425 -7.142,-4.35 -8.916,-8.138 L -147.616,53.177 c -0.227,-0.019 -0.44,-0.027 -0.628,-0.027 -0.19,0 -0.402,0.008 -0.629,0.027 l -109.294,233.201 c -1.774,3.788 -4.984,6.713 -8.916,8.138 -3.933,1.425 -8.27,1.225 -12.058,-0.549 l -141.468,-66.304 c -7.886,-3.696 -11.285,-13.088 -7.589,-20.974 l 113.905,-243.042 c -10.078,-4.658 -17.796,-13.558 -20.882,-25.078 -4.676,-17.447 2.794,-35.064 18.584,-43.836 3.199,-1.777 3.678,-4.679 3.678,-6.248 0,-1.57 -0.479,-4.472 -3.678,-6.248 -15.79,-8.773 -23.26,-26.392 -18.584,-43.84 4.677,-17.449 19.996,-28.984 38.013,-28.673 3.709,-0.049 5.525,-2.213 6.308,-3.573 0.784,-1.359 1.822,-4.111 -0.058,-7.252 -9.289,-15.492 -6.949,-34.482 5.822,-47.257 12.771,-12.772 31.765,-15.114 47.26,-5.825 3.139,1.883 5.889,0.846 7.25,0.061 1.361,-0.785 3.633,-2.65 3.572,-6.309 -0.3,-18.06 11.224,-33.338 28.673,-38.015 3.467,-0.93 6.942,-1.377 10.352,-1.377 13.747,0 26.457,7.31 33.485,19.965 1.777,3.199 4.679,3.677 6.248,3.677 1.569,0 4.472,-0.478 6.248,-3.677 8.772,-15.793 26.386,-23.256 43.837,-18.584 17.449,4.675 28.973,19.953 28.673,38.013 -0.061,3.66 2.214,5.526 3.572,6.309 1.362,0.783 4.111,1.822 7.253,-0.061 15.49,-9.287 34.484,-6.949 47.257,5.827 12.772,12.771 15.114,31.763 5.824,47.255 -1.882,3.139 -0.846,5.891 -0.06,7.252 0.786,1.36 2.661,3.557 6.309,3.573 18.137,-0.278 33.338,11.224 38.012,28.673 4.674,17.45 -2.794,35.065 -18.584,43.84 -3.199,1.778 -3.678,4.678 -3.678,6.248 0,1.573 0.479,4.471 3.678,6.248 15.79,8.772 23.261,26.389 18.584,43.838 -3.083,11.512 -10.804,20.428 -20.876,25.09 l 113.899,243.029 c 3.704,7.883 0.308,17.275 -7.581,20.971" /></g></g></g></g></svg>